<?xml version="1.0" encoding="UTF-8" standalone="no"?>
<!DOCTYPE svg PUBLIC "-//W3C//DTD SVG 1.1//EN" "http://www.w3.org/Graphics/SVG/1.1/DTD/svg11.dtd">
<svg version="1.1" xmlns="http://www.w3.org/2000/svg" xmlns:xlink="http://www.w3.org/1999/xlink" preserveAspectRatio="xMidYMid meet" viewBox="0 0 640 640" width="640" height="640"><defs><path d="M248.1 291.45C241.3 307.97 241.17 308.1 237.57 308.1C232.65 308.1 204.28 318.22 192.56 324.22C143.02 348.99 112.65 386.54 114.38 421.04C117.71 488.16 236.51 494.42 314.95 431.43C325.87 422.64 326.94 422.24 339.72 419.31C393.66 407.05 450.8 364.97 486.09 311.43C542.43 225.93 523.91 146.02 447.07 143.62C439.34 143.36 431.35 143.49 429.09 143.76C356.37 154.41 278.19 218.07 248.1 291.45ZM455.19 227.13C464.91 246.04 453.59 277.34 425.09 310.76C414.7 322.88 403.12 333.54 386.74 345.92C377.28 352.98 360.23 364.04 358.64 364.04C358.37 364.04 357.7 360.57 357.17 356.45C355.71 344.06 351.71 335.4 343.59 326.61C331.47 313.56 312.16 305.84 285.52 303.44C284.92 303.38 281.95 303.07 276.6 302.51C279.15 298.83 280.57 296.79 280.86 296.38C292.58 279.87 321.35 253.5 342.52 239.91C362.5 226.99 389.67 215.41 407.25 212.34C418.3 210.35 433.75 211.41 441.21 214.74C449.07 218.34 452 220.73 455.19 227.13ZM308.03 348.85C311.09 354.05 311.49 355.91 310.96 363.77C310.69 368.96 309.36 374.96 307.89 378.02C307.72 378.38 306.83 380.15 305.23 383.35C298.92 383.59 295.41 383.72 294.71 383.75C265.01 384.81 251.03 366.57 259.28 337C259.38 336.67 259.87 335.03 260.75 332.07C265.7 332.07 268.45 332.07 269.01 332.07C273.53 332.07 280.59 332.87 284.72 333.94C295.64 336.47 303.9 341.66 308.03 348.85ZM266.87 411.58C272.6 414.91 272.73 415.18 270.47 417.04C265.41 420.9 241.04 431.83 230.65 434.89C221.73 437.42 216.93 437.95 200.68 437.95C183.24 437.95 180.71 437.69 174.45 434.76C166.19 431.16 159.13 423.7 156.73 416.64C150.47 397.6 171.65 367.63 203.88 349.92C213.07 344.86 230.65 337.53 233.71 337.4C234.91 337.4 235.31 340.6 235.31 348.99C235.31 376.69 247.16 400 266.87 411.58Z" id="c6L7gPMM7Y"></path><mask id="maskcgEOO3q7N" x="112.31" y="141.48" width="408.52" height="335.75" maskUnits="userSpaceOnUse"><rect x="112.31" y="141.48" width="408.52" height="335.75" fill="white"></rect><use xlink:href="#c6L7gPMM7Y" opacity="1" fill="black"></use></mask></defs><g><g><g><g><filter id="shadow3918848" x="95.31" y="124.48" width="446.52" height="372.75" filterUnits="userSpaceOnUse" primitiveUnits="userSpaceOnUse"><feFlood></feFlood><feComposite in2="SourceAlpha" operator="in"></feComposite><feGaussianBlur stdDeviation="2"></feGaussianBlur><feOffset dx="4" dy="3" result="afterOffset"></feOffset><feFlood flood-color="#000000" flood-opacity="0.5"></feFlood><feComposite in2="afterOffset" operator="in"></feComposite><feMorphology operator="dilate" radius="2"></feMorphology><feComposite in2="SourceAlpha" operator="out"></feComposite></filter><path d="M248.1 291.45C241.3 307.97 241.17 308.1 237.57 308.1C232.65 308.1 204.28 318.22 192.56 324.22C143.02 348.99 112.65 386.54 114.38 421.04C117.71 488.16 236.51 494.42 314.95 431.43C325.87 422.64 326.94 422.24 339.72 419.31C393.66 407.05 450.8 364.97 486.09 311.43C542.43 225.93 523.91 146.02 447.07 143.62C439.34 143.36 431.35 143.49 429.09 143.76C356.37 154.41 278.19 218.07 248.1 291.45ZM455.19 227.13C464.91 246.04 453.59 277.34 425.09 310.76C414.7 322.88 403.12 333.54 386.74 345.92C377.28 352.98 360.23 364.04 358.64 364.04C358.37 364.04 357.7 360.57 357.17 356.45C355.71 344.06 351.71 335.4 343.59 326.61C331.47 313.56 312.16 305.84 285.52 303.44C284.92 303.38 281.95 303.07 276.6 302.51C279.15 298.83 280.57 296.79 280.86 296.38C292.58 279.87 321.35 253.5 342.52 239.91C362.5 226.99 389.67 215.41 407.25 212.34C418.3 210.35 433.75 211.41 441.21 214.74C449.07 218.34 452 220.73 455.19 227.13ZM308.03 348.85C311.09 354.05 311.49 355.91 310.96 363.77C310.69 368.96 309.36 374.96 307.89 378.02C307.72 378.38 306.83 380.15 305.23 383.35C298.92 383.59 295.41 383.72 294.71 383.75C265.01 384.81 251.03 366.57 259.28 337C259.38 336.67 259.87 335.03 260.75 332.07C265.7 332.07 268.45 332.07 269.01 332.07C273.53 332.07 280.59 332.87 284.72 333.94C295.64 336.47 303.9 341.66 308.03 348.85ZM266.87 411.58C272.6 414.91 272.73 415.18 270.47 417.04C265.41 420.9 241.04 431.83 230.65 434.89C221.73 437.42 216.93 437.95 200.68 437.95C183.24 437.95 180.71 437.69 174.45 434.76C166.19 431.16 159.13 423.7 156.73 416.64C150.47 397.6 171.65 367.63 203.88 349.92C213.07 344.86 230.65 337.53 233.71 337.4C234.91 337.4 235.31 340.6 235.31 348.99C235.31 376.69 247.16 400 266.87 411.58Z" id="g2yDQlkn5x" fill="white" fill-opacity="1" filter="url(#shadow3918848)"></path></g><use xlink:href="#c6L7gPMM7Y" opacity="1" fill="#3059fc" fill-opacity="1"></use><g mask="url(#maskcgEOO3q7N)"><use xlink:href="#c6L7gPMM7Y" opacity="1" fill-opacity="0" stroke="#140d0e" stroke-width="2" stroke-opacity="0"></use></g></g></g></g></svg>